HIERARCHY
ROOT SpineBase
{
  OFFSET 0.000000 0.000000 0.000000
  CHANNELS 6 Xposition Yposition Zposition Zrotation Xrotation Yrotation
  JOINT SpineMid
  {
    OFFSET 0.000000 22.655905 0.000000
    CHANNELS 3 Zrotation Xrotation Yrotation
    JOINT SpineShoulder
    {
      OFFSET -0.373188 16.975872 -0.545802
      CHANNELS 3 Zrotation Xrotation Yrotation
      JOINT Neck
      {
        OFFSET -0.289854 5.679485 -0.424561
        CHANNELS 3 Zrotation Xrotation Yrotation
        JOINT Head
        {
          OFFSET -2.160919 10.278559 -2.635374
          CHANNELS 3 Zrotation Xrotation Yrotation
          End Site
          {
            OFFSET 0 0 0
          }
        }
      }
      JOINT ShoulderLeft
      {
        OFFSET -12.935448 -0.236981 -2.287539
        CHANNELS 3 Zrotation Xrotation Yrotation
        JOINT ElbowLeft
        {
          OFFSET 15.726469 -2.555954 -0.912614
          CHANNELS 3 Zrotation Xrotation Yrotation
          JOINT WristLeft
          {
            OFFSET 2.545707 -3.660020 -14.289578
            CHANNELS 3 Zrotation Xrotation Yrotation
            JOINT HandLeft
            {
              OFFSET 1.054294 -1.308130 -4.468321
              CHANNELS 3 Zrotation Xrotation Yrotation
              JOINT HandTipLeft
              {
                OFFSET 1.032681 2.361480 -0.633161
                CHANNELS 3 Zrotation Xrotation Yrotation
                End Site
                {
                  OFFSET 0 0 0
                }
              }
              JOINT ThumbLeft
              {
                OFFSET -0.269541 1.029138 1.309323
                CHANNELS 3 Zrotation Xrotation Yrotation
                End Site
                {
                  OFFSET 0 0 0
                }
              }
            }
          }
        }
      }
      JOINT ShoulderRight
      {
        OFFSET -0.021218 -3.540098 -7.218074
        CHANNELS 3 Zrotation Xrotation Yrotation
        JOINT ElbowRight
        {
          OFFSET -1.862888 18.806829 -2.251058
          CHANNELS 3 Zrotation Xrotation Yrotation
          JOINT WristRight
          {
            OFFSET -6.759794 5.775923 -8.786630
            CHANNELS 3 Zrotation Xrotation Yrotation
            JOINT HandRight
            {
              OFFSET -3.522131 3.689835 -2.900409
              CHANNELS 3 Zrotation Xrotation Yrotation
              JOINT HandTipRight
              {
                OFFSET -0.577769 2.876151 -1.388578
                CHANNELS 3 Zrotation Xrotation Yrotation
                End Site
                {
                  OFFSET 0 0 0
                }
              }
              JOINT ThumbRight
              {
                OFFSET -1.358985 -0.602465 -1.994250
                CHANNELS 3 Zrotation Xrotation Yrotation
                End Site
                {
                  OFFSET 0 0 0
                }
              }
            }
          }
        }
      }
    }
  }
  JOINT HipLeft
  {
    OFFSET -8.856232 5.106968 -2.498338
    CHANNELS 3 Zrotation Xrotation Yrotation
    JOINT KneeLeft
    {
      OFFSET 6.225338 20.105540 -13.382885
      CHANNELS 3 Zrotation Xrotation Yrotation
      JOINT AnkleLeft
      {
        OFFSET 11.814923 3.180973 -6.176844
        CHANNELS 3 Zrotation Xrotation Yrotation
        JOINT FootLeft
        {
          OFFSET -4.300891 5.951134 -10.557568
          CHANNELS 3 Zrotation Xrotation Yrotation
          End Site
          {
            OFFSET 0 0 0
          }
        }
      }
    }
  }
  JOINT HipRight
  {
    OFFSET 5.246210 -2.971123 -2.796344
    CHANNELS 3 Zrotation Xrotation Yrotation
    JOINT KneeRight
    {
      OFFSET -9.782630 -20.410071 9.783185
      CHANNELS 3 Zrotation Xrotation Yrotation
      JOINT AnkleRight
      {
        OFFSET 10.118776 28.661096 -0.538175
        CHANNELS 3 Zrotation Xrotation Yrotation
        JOINT FootRight
        {
          OFFSET -4.341534 -3.480048 -7.515374
          CHANNELS 3 Zrotation Xrotation Yrotation
          End Site
          {
            OFFSET 0 0 0
          }
        }
      }
    }
  }
}
MOTION
Frames: 10
Frame Time: 0.033333
229.936769 39.850855 337.647228 -0.000000 0.000000 1.210566 -0.000000 0.000000 -1.210566 -0.000000 0.000000 0.000000 -0.000000 0.000000 0.000000 0.000000 0.000000 0.000000 -0.000000 0.000000 0.000000 -0.000000 0.000000 0.000000 -0.000000 0.000000 0.000000 -0.000000 0.000000 0.000000 0.000000 0.000000 0.000000 0.000000 0.000000 0.000000 -0.000000 0.000000 0.000000 -0.000000 0.000000 0.000000 -0.000000 0.000000 0.000000 -0.000000 0.000000 0.000000 0.000000 0.000000 0.000000 0.000000 0.000000 0.000000 -0.000000 0.000000 -1.210566 -0.000000 0.000000 0.000000 -0.000000 0.000000 0.000000 0.000000 0.000000 0.000000 -0.000000 0.000000 -1.210566 -0.000000 0.000000 0.000000 -0.000000 0.000000 0.000000 0.000000 0.000000 0.000000
230.384858 37.723382 336.486943 0.560631 -0.362293 2.790565 -0.542341 0.389140 -2.786951 0.660888 -0.514366 0.026103 -0.660681 0.514633 -0.020170 0.000000 0.000000 0.000000 8.532015 1.157496 0.348697 -9.454196 -0.246272 0.680513 -0.040958 0.003682 0.052474 0.294467 -0.332999 -1.283400 0.000000 0.000000 0.000000 0.000000 0.000000 0.000000 -1.294688 1.099279 -0.029267 5.302635 -6.578040 0.346836 3.264231 -5.433452 -3.964841 -2.295943 5.243661 5.683569 0.000000 0.000000 0.000000 0.000000 0.000000 0.000000 1.467911 -4.568420 0.220594 -3.393702 10.144082 -25.297264 15.851047 -11.073121 30.000927 0.000000 0.000000 0.000000 3.246685 4.474025 -3.290129 -3.558489 -4.286238 0.209055 5.370398 -11.206526 4.036757 0.000000 0.000000 0.000000
230.760284 35.698035 335.526932 1.074096 -0.685146 4.379660 0.066911 -0.126530 -4.353230 0.101512 -0.152318 0.026313 -1.251334 0.959439 -0.034142 0.000000 0.000000 0.000000 16.897110 2.453767 1.065418 -18.641097 -0.449789 0.446432 -0.076861 0.006978 0.097973 0.539749 -0.601934 -2.359038 0.000000 0.000000 0.000000 0.000000 0.000000 0.000000 -2.417290 2.034250 -0.036887 9.622503 -11.766620 1.055133 5.918667 -12.172408 -7.708734 -3.282992 9.234712 11.115265 0.000000 0.000000 0.000000 0.000000 0.000000 0.000000 2.535824 -7.821721 1.020296 -3.901556 18.208924 -45.944392 38.605310 -9.521132 58.714020 0.000000 0.000000 0.000000 5.792946 7.679144 -5.486668 -6.174009 -7.482890 0.213104 10.164042 -19.425810 8.084590 0.000000 0.000000 0.000000
231.063047 33.774812 334.767193 1.517409 -0.952999 5.886222 0.082230 -0.168585 -5.844697 0.130851 -0.198931 0.037857 -1.746092 1.313029 -0.043584 0.000000 0.000000 0.000000 24.451899 3.929342 2.208672 -26.895599 -0.435707 -0.673251 -0.107341 0.009300 0.135316 0.739054 -0.804034 -3.227075 0.000000 0.000000 0.000000 0.000000 0.000000 0.000000 -3.348459 2.788990 -0.031940 13.070256 -15.723395 1.879303 6.750832 -18.045747 -11.051784 -1.668903 10.729704 15.378022 0.000000 0.000000 0.000000 0.000000 0.000000 0.000000 3.277753 -9.999783 1.317853 -3.144673 23.299238 -59.966688 56.164703 0.852104 76.480484 0.000000 0.000000 0.000000 7.665073 9.824578 -7.563395 -7.971320 -9.726938 0.155423 13.749525 -24.589812 11.393333 0.000000 0.000000 0.000000
231.293147 31.953715 334.207727 1.869571 -1.152195 7.204446 0.086790 -0.192248 -7.149340 0.144433 -0.222759 0.047389 -2.122371 1.557586 -0.050422 0.000000 0.000000 0.000000 30.741559 5.604538 3.818131 -33.747683 -0.113920 -2.574883 -0.132137 0.010196 0.163640 0.895058 -0.937272 -3.888196 0.000000 0.000000 0.000000 0.000000 0.000000 0.000000 -4.070541 3.350315 -0.022679 15.737721 -18.644323 2.664169 5.124072 -21.654448 -14.302954 2.994406 9.362259 18.213454 0.000000 0.000000 0.000000 0.000000 0.000000 0.000000 3.799606 -11.281417 1.271997 -2.238942 26.067927 -68.623146 65.922812 10.721947 84.833421 0.000000 0.000000 0.000000 8.862843 11.102831 -9.325168 -9.040864 -11.139663 0.119941 15.736549 -27.153011 13.490573 0.000000 0.000000 0.000000
231.450584 30.234742 333.848534 2.114259 -1.272795 8.231475 0.082398 -0.195680 -8.166235 0.142112 -0.222872 0.054353 -2.363628 1.681115 -0.056350 0.000000 0.000000 0.000000 35.543105 7.471427 5.928024 -38.972353 0.508339 -5.150626 -0.151074 0.009347 0.182349 1.009780 -1.000203 -4.343243 0.000000 0.000000 0.000000 0.000000 0.000000 0.000000 -4.570642 3.709984 -0.015777 17.696564 -20.702321 3.316904 0.428535 -21.938894 -17.778434 10.956377 5.040940 20.008610 0.000000 0.000000 0.000000 0.000000 0.000000 0.000000 4.206284 -11.773440 1.031187 -1.544023 27.157841 -73.325520 69.683890 16.256646 88.453320 0.000000 0.000000 0.000000 9.365479 11.661954 -10.619106 -9.438665 -11.803589 0.151676 15.932340 -27.472265 14.160028 0.000000 0.000000 0.000000
231.364546 31.684837 333.743170 1.997203 -1.074039 9.191621 0.049639 -0.135270 -9.131240 0.093036 -0.151244 0.054210 -2.158872 1.354266 -0.066889 0.000000 0.000000 0.000000 34.177630 7.829012 7.738407 -37.881178 -0.208505 -6.606624 -0.213210 -0.002425 0.169826 1.331540 0.006895 -4.497632 0.000000 0.000000 0.000000 0.000000 0.000000 0.000000 -4.963980 3.911405 -0.020636 22.207811 -25.135791 5.040875 -8.148175 -26.610419 -26.164196 9.726576 6.564687 24.584649 0.000000 0.000000 0.000000 0.000000 0.000000 0.000000 3.615622 -10.882159 -0.733021 22.963976 19.595989 -59.610155 59.138757 -8.914581 96.609911 0.000000 0.000000 0.000000 7.058647 9.495929 -11.080969 -7.243456 -9.568547 0.479446 17.842670 -29.335738 13.665796 0.000000 0.000000 0.000000
231.946325 27.182516 334.840099 1.982248 -1.547480 16.894592 0.028347 -0.117099 -16.837466 0.076856 -0.116416 0.039790 -2.118338 1.770140 -0.035370 0.000000 0.000000 0.000000 40.851382 13.005441 13.717172 -44.601190 2.691303 -14.891825 -0.153376 -0.001729 0.158434 1.013377 -0.724400 -4.096565 0.000000 0.000000 0.000000 0.000000 0.000000 0.000000 -4.454417 3.911754 0.013159 20.852640 -25.088191 3.670063 -27.087972 5.541210 -15.869257 51.943458 -31.835114 27.875499 0.000000 0.000000 0.000000 0.000000 0.000000 0.000000 2.222805 -13.431061 -7.409414 -7.167918 30.470368 -74.251550 72.353901 21.693569 86.056868 0.000000 0.000000 0.000000 7.584416 7.806893 -18.261830 -6.854008 -8.205371 0.148744 11.747193 -22.137219 10.686102 0.000000 0.000000 0.000000
230.982989 26.825382 333.071259 1.760507 -0.809371 5.233759 0.011099 -0.038519 -5.182417 0.014108 -0.031780 0.050745 -1.787850 0.881255 -0.075035 0.000000 0.000000 0.000000 44.897799 14.924855 16.799728 -50.898350 -0.036064 -19.250304 0.210349 0.853803 -1.234990 -5.345156 3.685452 -3.277312 0.000000 0.000000 0.000000 0.000000 0.000000 0.000000 -4.118416 3.021801 -0.063057 20.351546 -24.309470 3.660980 -25.362176 10.409089 -10.424127 51.993320 -39.265292 28.361666 0.000000 0.000000 0.000000 0.000000 0.000000 0.000000 5.141178 -6.747100 2.162180 9.156471 18.951820 -71.331263 60.589502 2.215460 91.528107 0.000000 0.000000 0.000000 3.947805 7.599305 -6.723129 -4.852528 -7.213219 0.788642 8.414750 -15.588095 4.106338 0.000000 0.000000 0.000000
230.671029 22.650527 332.284911 1.678870 -0.296064 11.157006 -0.020623 0.024604 -11.105801 -0.042751 0.044863 0.060931 -1.610644 0.234143 -0.105260 0.000000 0.000000 0.000000 47.282028 15.139789 17.259447 -52.273163 1.970032 -19.777821 1.593935 3.278926 -3.207762 -5.296662 -0.815474 -1.165537 0.000000 0.000000 0.000000 0.000000 0.000000 0.000000 -3.947182 2.387082 -0.119160 17.331607 -14.592620 7.933214 -58.363747 33.982209 -3.143462 106.154644 -45.855447 53.212828 0.000000 0.000000 0.000000 0.000000 0.000000 0.000000 5.318587 -4.756662 -4.482962 -6.206274 19.287471 -70.579885 52.916190 3.904437 78.771070 0.000000 0.000000 0.000000 2.090281 3.702050 -11.645217 -2.988313 -3.759409 0.264273 1.619631 -1.304850 -1.932990 0.000000 0.000000 0.000000
